<?xml version="1.0" encoding="utf-8"?>
<!-- Generator: Adobe Illustrator 27.5.0, SVG Export Plug-In . SVG Version: 6.00 Build 0)  -->
<svg version="1.1" id="Layer_2_00000006675888531475630530000014923588403226612355_"
	 xmlns="http://www.w3.org/2000/svg" xmlns:xlink="http://www.w3.org/1999/xlink" x="0px" y="0px" viewBox="0 0 324.3 82.1"
	 style="enable-background:new 0 0 324.3 82.1;" xml:space="preserve">
<style type="text/css">
	.st0{fill:#F4ECE8;}
</style>
<g id="Layer_2-2">
	<g id="Layer_3">
		<path class="st0" d="M0,80.4h14.2V54.6h25.3c3.2,0,4.7,1.5,4.7,4.6v21.2h14.2V62.1c0-4.7-0.8-8.5-2.5-11.2c-1.7-2.7-4.3-4.7-8.1-6
			c3.4-1.6,6-4.2,7.8-8c1.8-3.8,2.7-8.3,2.7-13.7v-1.5H44.3v2.7c0,5.9-1.3,10.3-3.9,13.1s-6.7,4.3-12.2,4.3h-14V10.9H0V80.4z
			 M76.5,17.1c2.6,0,4.7-0.8,6.4-2.4s2.5-3.6,2.5-6.2S84.6,3.9,83,2.4S79.2,0,76.5,0s-4.7,0.8-6.4,2.4S67.6,6,67.6,8.5
			s0.8,4.6,2.5,6.2C71.8,16.3,73.9,17.1,76.5,17.1 M305.3,68.4h-22.5c-3.2,0-4.7-1.5-4.7-4.6V38.4c0-3.1,1.6-4.6,4.7-4.6h22.5
			c3.2,0,4.7,1.5,4.7,4.6v25.3C310,66.8,308.5,68.4,305.3,68.4 M291,82.1c4.3,0,8.1-0.7,11.3-2.1c3.2-1.4,6-3.6,8.6-6.6v7h13.4V21.7
			h-13.4v7c-2.6-3-5.5-5.2-8.6-6.6c-3.2-1.4-6.9-2.1-11.3-2.1c-8.9,0-15.9,2.8-20.9,8.5c-5,5.7-7.5,13.2-7.5,22.6s2.5,16.9,7.5,22.6
			C275.1,79.3,282,82.1,291,82.1 M248.3,80.4h12.2V67.9h-12.8c-3.2,0-4.7-1.5-4.7-4.6v-29h17.5V21.7H243V9h-13v7.7
			c0,3.3-1.6,5-4.7,5h-7.9v12.6h11.5v27c0,6,1.7,10.7,5.1,14.1C237.3,78.7,242.1,80.4,248.3,80.4 M163.6,80.4h28
			c16,0,24.1-5.7,24.1-17.2c0-5.2-1.6-9.2-4.7-11.9c-3.1-2.7-8.3-4.6-15.5-5.6l-11.9-1.8c-3.4-0.5-5.6-1.1-6.6-1.7
			c-1-0.6-1.5-1.6-1.5-3.1V38c0-1.3,0.4-2.3,1.1-2.9s1.9-0.9,3.7-0.9h31.5V21.7h-26.1c-8.1,0-14.1,1.5-18.2,4.4s-6.2,7.4-6.2,13.2
			c0,5.1,1.6,8.9,4.8,11.6c3.2,2.7,8.4,4.6,15.7,5.7l11.5,1.7c2.4,0.3,4.2,0.6,5.3,1c1.1,0.3,1.9,0.8,2.2,1.3s0.6,1.3,0.6,2.4v1.2
			c0,1.3-0.4,2.3-1.1,2.9c-0.8,0.6-1.9,0.9-3.6,0.9h-33.1L163.6,80.4L163.6,80.4z M95.5,80.4h14.2V38.4c0-3.1,1.6-4.6,4.7-4.6h20.7
			c3.2,0,4.7,1.5,4.7,4.6v42.1h14.2v-40c0-6.2-2-11.1-6.1-14.8s-9.9-5.6-17.5-5.6c-4.6,0-8.8,0.8-12.5,2.2s-6.8,3.6-9.2,6.4v-7H95.5
			L95.5,80.4L95.5,80.4L95.5,80.4z M69.4,80.4h14.2V21.7H69.4V80.4L69.4,80.4L69.4,80.4z"/>
	</g>
</g>
</svg>
